ISO-10303-21;
HEADER;
/* Generated by software containing ST-Developer
 * from STEP Tools, Inc. (www.steptools.com) 
 */
/* OPTION: using custom renumber hook */

FILE_DESCRIPTION(
/* description */ ('STEP AP242 Edition 2',
'CAx-IF Rec.Pracs.---Representation and Presentation of Product Manufa
cturing Information (PMI)---4.0---2014-10-13',
'CAx-IF Rec.Pracs.---3D Tessellated Geometry---0.4---2014-09-14','2;1',
'CAx-IF Rec.Pracs.---User Defined Attributes---1.5---2016-08-15'),
/* implementation_level */ '2;1');

FILE_NAME(
/* name */ 'Part Studio 1',
/* time_stamp */ '2026-09-17T13:37:51Z',
/* author */ (''),
/* organization */ (''),
/* preprocessor_version */ 'ST-DEVELOPER v20',
/* originating_system */ 'ONSHAPE BY PTC INC, 1.220',
/* authorisation */ '  ');

FILE_SCHEMA (('AP242_MANAGED_MODEL_BASED_3D_ENGINEERING_MIM_LF { 1 0 10303 442 3 1 4 }'));
ENDSEC;

DATA;
#10=SHAPE_REPRESENTATION_RELATIONSHIP('','',#229,#11);
#11=ADVANCED_BREP_SHAPE_REPRESENTATION('',(#227),#367);
#12=ELLIPSE('',#237,0.00718420489685532,0.00508);
#13=ELLIPSE('',#238,0.00718420489685532,0.00508);
#14=ELLIPSE('',#240,0.00718420489685532,0.00508);
#15=ELLIPSE('',#242,0.00718420489685532,0.00508);
#16=CYLINDRICAL_SURFACE('',#236,0.00508);
#17=CYLINDRICAL_SURFACE('',#239,0.00508);
#18=CYLINDRICAL_SURFACE('',#241,0.00508);
#19=CYLINDRICAL_SURFACE('',#243,0.00508);
#20=ORIENTED_EDGE('',*,*,#76,.F.);
#21=ORIENTED_EDGE('',*,*,#77,.T.);
#22=ORIENTED_EDGE('',*,*,#78,.T.);
#23=ORIENTED_EDGE('',*,*,#79,.F.);
#24=ORIENTED_EDGE('',*,*,#80,.F.);
#25=ORIENTED_EDGE('',*,*,#81,.T.);
#26=ORIENTED_EDGE('',*,*,#76,.T.);
#27=ORIENTED_EDGE('',*,*,#82,.T.);
#28=ORIENTED_EDGE('',*,*,#83,.F.);
#29=ORIENTED_EDGE('',*,*,#84,.T.);
#30=ORIENTED_EDGE('',*,*,#80,.T.);
#31=ORIENTED_EDGE('',*,*,#85,.T.);
#32=ORIENTED_EDGE('',*,*,#78,.F.);
#33=ORIENTED_EDGE('',*,*,#86,.T.);
#34=ORIENTED_EDGE('',*,*,#83,.T.);
#35=ORIENTED_EDGE('',*,*,#87,.F.);
#36=ORIENTED_EDGE('',*,*,#88,.T.);
#37=ORIENTED_EDGE('',*,*,#89,.T.);
#38=ORIENTED_EDGE('',*,*,#90,.T.);
#39=ORIENTED_EDGE('',*,*,#91,.T.);
#40=ORIENTED_EDGE('',*,*,#79,.T.);
#41=ORIENTED_EDGE('',*,*,#87,.T.);
#42=ORIENTED_EDGE('',*,*,#85,.F.);
#43=ORIENTED_EDGE('',*,*,#82,.F.);
#44=ORIENTED_EDGE('',*,*,#92,.F.);
#45=ORIENTED_EDGE('',*,*,#93,.F.);
#46=ORIENTED_EDGE('',*,*,#94,.F.);
#47=ORIENTED_EDGE('',*,*,#81,.F.);
#48=ORIENTED_EDGE('',*,*,#94,.T.);
#49=ORIENTED_EDGE('',*,*,#95,.F.);
#50=ORIENTED_EDGE('',*,*,#96,.F.);
#51=ORIENTED_EDGE('',*,*,#77,.F.);
#52=ORIENTED_EDGE('',*,*,#92,.T.);
#53=ORIENTED_EDGE('',*,*,#84,.F.);
#54=ORIENTED_EDGE('',*,*,#97,.F.);
#55=ORIENTED_EDGE('',*,*,#98,.F.);
#56=ORIENTED_EDGE('',*,*,#96,.T.);
#57=ORIENTED_EDGE('',*,*,#99,.F.);
#58=ORIENTED_EDGE('',*,*,#97,.T.);
#59=ORIENTED_EDGE('',*,*,#86,.F.);
#60=ORIENTED_EDGE('',*,*,#99,.T.);
#61=ORIENTED_EDGE('',*,*,#100,.F.);
#62=ORIENTED_EDGE('',*,*,#90,.F.);
#63=ORIENTED_EDGE('',*,*,#101,.T.);
#64=ORIENTED_EDGE('',*,*,#93,.T.);
#65=ORIENTED_EDGE('',*,*,#102,.F.);
#66=ORIENTED_EDGE('',*,*,#88,.F.);
#67=ORIENTED_EDGE('',*,*,#103,.T.);
#68=ORIENTED_EDGE('',*,*,#98,.T.);
#69=ORIENTED_EDGE('',*,*,#101,.F.);
#70=ORIENTED_EDGE('',*,*,#89,.F.);
#71=ORIENTED_EDGE('',*,*,#102,.T.);
#72=ORIENTED_EDGE('',*,*,#95,.T.);
#73=ORIENTED_EDGE('',*,*,#103,.F.);
#74=ORIENTED_EDGE('',*,*,#91,.F.);
#75=ORIENTED_EDGE('',*,*,#100,.T.);
#76=EDGE_CURVE('',#104,#105,#120,.T.);
#77=EDGE_CURVE('',#104,#106,#121,.T.);
#78=EDGE_CURVE('',#106,#107,#122,.T.);
#79=EDGE_CURVE('',#105,#107,#123,.T.);
#80=EDGE_CURVE('',#108,#109,#124,.T.);
#81=EDGE_CURVE('',#108,#104,#125,.F.);
#82=EDGE_CURVE('',#105,#109,#126,.T.);
#83=EDGE_CURVE('',#110,#111,#127,.T.);
#84=EDGE_CURVE('',#110,#108,#128,.F.);
#85=EDGE_CURVE('',#109,#111,#129,.T.);
#86=EDGE_CURVE('',#106,#110,#130,.T.);
#87=EDGE_CURVE('',#107,#111,#131,.T.);
#88=EDGE_CURVE('',#112,#113,#132,.T.);
#89=EDGE_CURVE('',#113,#114,#133,.T.);
#90=EDGE_CURVE('',#114,#115,#134,.T.);
#91=EDGE_CURVE('',#115,#112,#135,.T.);
#92=EDGE_CURVE('',#116,#108,#12,.F.);
#93=EDGE_CURVE('',#117,#116,#136,.T.);
#94=EDGE_CURVE('',#104,#117,#13,.T.);
#95=EDGE_CURVE('',#118,#117,#137,.F.);
#96=EDGE_CURVE('',#106,#118,#14,.T.);
#97=EDGE_CURVE('',#119,#110,#15,.F.);
#98=EDGE_CURVE('',#116,#119,#138,.T.);
#99=EDGE_CURVE('',#119,#118,#139,.F.);
#100=EDGE_CURVE('',#115,#118,#140,.T.);
#101=EDGE_CURVE('',#114,#119,#141,.T.);
#102=EDGE_CURVE('',#113,#116,#142,.T.);
#103=EDGE_CURVE('',#112,#117,#143,.T.);
#104=VERTEX_POINT('',#311);
#105=VERTEX_POINT('',#312);
#106=VERTEX_POINT('',#314);
#107=VERTEX_POINT('',#316);
#108=VERTEX_POINT('',#320);
#109=VERTEX_POINT('',#321);
#110=VERTEX_POINT('',#326);
#111=VERTEX_POINT('',#327);
#112=VERTEX_POINT('',#335);
#113=VERTEX_POINT('',#336);
#114=VERTEX_POINT('',#338);
#115=VERTEX_POINT('',#340);
#116=VERTEX_POINT('',#344);
#117=VERTEX_POINT('',#346);
#118=VERTEX_POINT('',#350);
#119=VERTEX_POINT('',#354);
#120=LINE('',#310,#144);
#121=LINE('',#313,#145);
#122=LINE('',#315,#146);
#123=LINE('',#317,#147);
#124=LINE('',#319,#148);
#125=LINE('',#322,#149);
#126=LINE('',#323,#150);
#127=LINE('',#325,#151);
#128=LINE('',#328,#152);
#129=LINE('',#329,#153);
#130=LINE('',#331,#154);
#131=LINE('',#332,#155);
#132=LINE('',#334,#156);
#133=LINE('',#337,#157);
#134=LINE('',#339,#158);
#135=LINE('',#341,#159);
#136=LINE('',#345,#160);
#137=LINE('',#349,#161);
#138=LINE('',#355,#162);
#139=LINE('',#357,#163);
#140=LINE('',#359,#164);
#141=LINE('',#360,#165);
#142=LINE('',#362,#166);
#143=LINE('',#363,#167);
#144=VECTOR('',#252,1.);
#145=VECTOR('',#253,1.);
#146=VECTOR('',#254,1.);
#147=VECTOR('',#255,1.);
#148=VECTOR('',#258,1.);
#149=VECTOR('',#259,1.);
#150=VECTOR('',#260,1.);
#151=VECTOR('',#263,1.);
#152=VECTOR('',#264,1.);
#153=VECTOR('',#265,1.);
#154=VECTOR('',#268,1.);
#155=VECTOR('',#269,1.);
#156=VECTOR('',#272,1.);
#157=VECTOR('',#273,1.);
#158=VECTOR('',#274,1.);
#159=VECTOR('',#275,1.);
#160=VECTOR('',#280,1.);
#161=VECTOR('',#285,1.);
#162=VECTOR('',#292,1.);
#163=VECTOR('',#295,1.);
#164=VECTOR('',#298,1.);
#165=VECTOR('',#299,1.);
#166=VECTOR('',#302,1.);
#167=VECTOR('',#303,1.);
#168=EDGE_LOOP('',(#20,#21,#22,#23));
#169=EDGE_LOOP('',(#24,#25,#26,#27));
#170=EDGE_LOOP('',(#28,#29,#30,#31));
#171=EDGE_LOOP('',(#32,#33,#34,#35));
#172=EDGE_LOOP('',(#36,#37,#38,#39));
#173=EDGE_LOOP('',(#40,#41,#42,#43));
#174=EDGE_LOOP('',(#44,#45,#46,#47));
#175=EDGE_LOOP('',(#48,#49,#50,#51));
#176=EDGE_LOOP('',(#52,#53,#54,#55));
#177=EDGE_LOOP('',(#56,#57,#58,#59));
#178=EDGE_LOOP('',(#60,#61,#62,#63));
#179=EDGE_LOOP('',(#64,#65,#66,#67));
#180=EDGE_LOOP('',(#68,#69,#70,#71));
#181=EDGE_LOOP('',(#72,#73,#74,#75));
#182=FACE_BOUND('',#168,.T.);
#183=FACE_BOUND('',#169,.T.);
#184=FACE_BOUND('',#170,.T.);
#185=FACE_BOUND('',#171,.T.);
#186=FACE_BOUND('',#172,.T.);
#187=FACE_BOUND('',#173,.T.);
#188=FACE_BOUND('',#174,.T.);
#189=FACE_BOUND('',#175,.T.);
#190=FACE_BOUND('',#176,.T.);
#191=FACE_BOUND('',#177,.T.);
#192=FACE_BOUND('',#178,.T.);
#193=FACE_BOUND('',#179,.T.);
#194=FACE_BOUND('',#180,.T.);
#195=FACE_BOUND('',#181,.T.);
#196=PLANE('',#231);
#197=PLANE('',#232);
#198=PLANE('',#233);
#199=PLANE('',#234);
#200=PLANE('',#235);
#201=PLANE('',#244);
#202=PLANE('',#245);
#203=PLANE('',#246);
#204=PLANE('',#247);
#205=ADVANCED_FACE('',(#182),#196,.T.);
#206=ADVANCED_FACE('',(#183),#197,.F.);
#207=ADVANCED_FACE('',(#184),#198,.F.);
#208=ADVANCED_FACE('',(#185),#199,.T.);
#209=ADVANCED_FACE('',(#186,#187),#200,.F.);
#210=ADVANCED_FACE('',(#188),#16,.T.);
#211=ADVANCED_FACE('',(#189),#17,.T.);
#212=ADVANCED_FACE('',(#190),#18,.T.);
#213=ADVANCED_FACE('',(#191),#19,.T.);
#214=ADVANCED_FACE('',(#192),#201,.F.);
#215=ADVANCED_FACE('',(#193),#202,.F.);
#216=ADVANCED_FACE('',(#194),#203,.F.);
#217=ADVANCED_FACE('',(#195),#204,.F.);
#218=CLOSED_SHELL('',(#205,#206,#207,#208,#209,#210,#211,#212,#213,#214,
#215,#216,#217));
#219=STYLED_ITEM('',(#220),#227);
#220=PRESENTATION_STYLE_ASSIGNMENT((#221));
#221=SURFACE_STYLE_USAGE(.BOTH.,#222);
#222=SURFACE_SIDE_STYLE('',(#223));
#223=SURFACE_STYLE_FILL_AREA(#224);
#224=FILL_AREA_STYLE('',(#225));
#225=FILL_AREA_STYLE_COLOUR('',#226);
#226=COLOUR_RGB('',0.615686274509804,0.811764705882353,0.929411764705882);
#227=MANIFOLD_SOLID_BREP('Part 1',#218);
#228=SHAPE_DEFINITION_REPRESENTATION(#372,#229);
#229=SHAPE_REPRESENTATION('Part 1',(#230),#367);
#230=AXIS2_PLACEMENT_3D('',#308,#248,#249);
#231=AXIS2_PLACEMENT_3D('',#309,#250,#251);
#232=AXIS2_PLACEMENT_3D('',#318,#256,#257);
#233=AXIS2_PLACEMENT_3D('',#324,#261,#262);
#234=AXIS2_PLACEMENT_3D('',#330,#266,#267);
#235=AXIS2_PLACEMENT_3D('',#333,#270,#271);
#236=AXIS2_PLACEMENT_3D('',#342,#276,#277);
#237=AXIS2_PLACEMENT_3D('',#343,#278,#279);
#238=AXIS2_PLACEMENT_3D('',#347,#281,#282);
#239=AXIS2_PLACEMENT_3D('',#348,#283,#284);
#240=AXIS2_PLACEMENT_3D('',#351,#286,#287);
#241=AXIS2_PLACEMENT_3D('',#352,#288,#289);
#242=AXIS2_PLACEMENT_3D('',#353,#290,#291);
#243=AXIS2_PLACEMENT_3D('',#356,#293,#294);
#244=AXIS2_PLACEMENT_3D('',#358,#296,#297);
#245=AXIS2_PLACEMENT_3D('',#361,#300,#301);
#246=AXIS2_PLACEMENT_3D('',#364,#304,#305);
#247=AXIS2_PLACEMENT_3D('',#365,#306,#307);
#248=DIRECTION('',(0.,0.,1.));
#249=DIRECTION('',(1.,0.,0.));
#250=DIRECTION('',(0.,1.,0.));
#251=DIRECTION('',(0.,0.,1.));
#252=DIRECTION('',(0.,0.,-1.));
#253=DIRECTION('',(1.,0.,0.));
#254=DIRECTION('',(0.,0.,-1.));
#255=DIRECTION('',(1.,0.,0.));
#256=DIRECTION('',(1.,0.,0.));
#257=DIRECTION('',(0.,0.,-1.));
#258=DIRECTION('',(0.,0.,-1.));
#259=DIRECTION('',(0.,-1.,0.));
#260=DIRECTION('',(0.,-1.,0.));
#261=DIRECTION('',(0.,1.,0.));
#262=DIRECTION('',(0.,0.,1.));
#263=DIRECTION('',(0.,0.,-1.));
#264=DIRECTION('',(1.,0.,0.));
#265=DIRECTION('',(1.,0.,0.));
#266=DIRECTION('',(1.,0.,0.));
#267=DIRECTION('',(0.,0.,-1.));
#268=DIRECTION('',(0.,-1.,0.));
#269=DIRECTION('',(0.,-1.,0.));
#270=DIRECTION('',(0.,0.,1.));
#271=DIRECTION('',(1.,0.,0.));
#272=DIRECTION('',(0.,-1.,0.));
#273=DIRECTION('',(1.,0.,0.));
#274=DIRECTION('',(0.,1.,0.));
#275=DIRECTION('',(-1.,0.,0.));
#276=DIRECTION('',(0.,1.,0.));
#277=DIRECTION('',(0.,0.,1.));
#278=DIRECTION('',(-0.707106781186548,0.707106781186548,0.));
#279=DIRECTION('',(-0.707106781186548,-0.707106781186548,0.));
#280=DIRECTION('',(0.,-1.,0.));
#281=DIRECTION('',(0.707106781186548,0.707106781186548,0.));
#282=DIRECTION('',(0.707106781186548,-0.707106781186548,0.));
#283=DIRECTION('',(1.,0.,0.));
#284=DIRECTION('',(0.,0.,-1.));
#285=DIRECTION('',(1.,0.,0.));
#286=DIRECTION('',(0.707106781186548,-0.707106781186548,0.));
#287=DIRECTION('',(0.707106781186548,0.707106781186548,0.));
#288=DIRECTION('',(-1.,0.,0.));
#289=DIRECTION('',(0.,0.,1.));
#290=DIRECTION('',(-0.707106781186548,-0.707106781186548,0.));
#291=DIRECTION('',(-0.707106781186548,0.707106781186548,0.));
#292=DIRECTION('',(1.,0.,0.));
#293=DIRECTION('',(0.,-1.,0.));
#294=DIRECTION('',(0.,0.,-1.));
#295=DIRECTION('',(0.,-1.,0.));
#296=DIRECTION('',(1.,0.,0.));
#297=DIRECTION('',(0.,0.,-1.));
#298=DIRECTION('',(0.,0.,1.));
#299=DIRECTION('',(0.,0.,1.));
#300=DIRECTION('',(-1.,0.,0.));
#301=DIRECTION('',(0.,0.,1.));
#302=DIRECTION('',(0.,0.,1.));
#303=DIRECTION('',(0.,0.,1.));
#304=DIRECTION('',(0.,-1.,0.));
#305=DIRECTION('',(0.,0.,-1.));
#306=DIRECTION('',(0.,1.,0.));
#307=DIRECTION('',(0.,0.,1.));
#308=CARTESIAN_POINT('',(0.,0.,0.));
#309=CARTESIAN_POINT('',(0.100880891084671,0.,0.0254));
#310=CARTESIAN_POINT('',(0.,0.,0.0254));
#311=CARTESIAN_POINT('',(0.,0.,0.02032));
#312=CARTESIAN_POINT('',(0.,0.,0.));
#313=CARTESIAN_POINT('',(0.100880891084671,0.,0.02032));
#314=CARTESIAN_POINT('',(0.201761782169342,0.,0.02032));
#315=CARTESIAN_POINT('',(0.201761782169342,0.,0.0254));
#316=CARTESIAN_POINT('',(0.201761782169342,0.,0.));
#317=CARTESIAN_POINT('',(0.100880891084671,0.,0.));
#318=CARTESIAN_POINT('',(0.,-0.0578644573688507,0.0254));
#319=CARTESIAN_POINT('',(0.,-0.115728914737701,0.0254));
#320=CARTESIAN_POINT('',(0.,-0.115728914737701,0.02032));
#321=CARTESIAN_POINT('',(0.,-0.115728914737701,0.));
#322=CARTESIAN_POINT('',(0.,0.,0.02032));
#323=CARTESIAN_POINT('',(0.,-0.0578644573688507,0.));
#324=CARTESIAN_POINT('',(0.100880891084671,-0.115728914737701,0.0254));
#325=CARTESIAN_POINT('',(0.201761782169342,-0.115728914737701,0.0254));
#326=CARTESIAN_POINT('',(0.201761782169342,-0.115728914737701,0.02032));
#327=CARTESIAN_POINT('',(0.201761782169342,-0.115728914737701,0.));
#328=CARTESIAN_POINT('',(0.,-0.115728914737701,0.02032));
#329=CARTESIAN_POINT('',(0.100880891084671,-0.115728914737701,0.));
#330=CARTESIAN_POINT('',(0.201761782169342,-0.0578644573688507,0.0254));
#331=CARTESIAN_POINT('',(0.201761782169342,-0.0578644573688507,0.02032));
#332=CARTESIAN_POINT('',(0.201761782169342,-0.0578644573688507,0.));
#333=CARTESIAN_POINT('',(0.100880891084671,-0.0578644573688507,0.));
#334=CARTESIAN_POINT('',(0.00508,-0.0578644573688507,0.));
#335=CARTESIAN_POINT('',(0.00508,-0.00508,0.));
#336=CARTESIAN_POINT('',(0.00508,-0.110648914737701,0.));
#337=CARTESIAN_POINT('',(0.100880891084671,-0.110648914737701,0.));
#338=CARTESIAN_POINT('',(0.196681782169342,-0.110648914737701,0.));
#339=CARTESIAN_POINT('',(0.196681782169342,-0.0578644573688507,0.));
#340=CARTESIAN_POINT('',(0.196681782169342,-0.00508,0.));
#341=CARTESIAN_POINT('',(0.100880891084671,-0.00508,0.));
#342=CARTESIAN_POINT('',(0.00508,-0.0578644573688507,0.02032));
#343=CARTESIAN_POINT('',(0.00508,-0.110648914737701,0.02032));
#344=CARTESIAN_POINT('',(0.00508,-0.110648914737701,0.0254));
#345=CARTESIAN_POINT('',(0.00508,-0.115728914737701,0.0254));
#346=CARTESIAN_POINT('',(0.00508,-0.00508,0.0254));
#347=CARTESIAN_POINT('',(0.00508,-0.00508,0.02032));
#348=CARTESIAN_POINT('',(0.100880891084671,-0.00508,0.02032));
#349=CARTESIAN_POINT('',(0.100880891084671,-0.00508,0.0254));
#350=CARTESIAN_POINT('',(0.196681782169342,-0.00508,0.0254));
#351=CARTESIAN_POINT('',(0.196681782169342,-0.00508,0.02032));
#352=CARTESIAN_POINT('',(0.100880891084671,-0.110648914737701,0.02032));
#353=CARTESIAN_POINT('',(0.196681782169342,-0.110648914737701,0.02032));
#354=CARTESIAN_POINT('',(0.196681782169342,-0.110648914737701,0.0254));
#355=CARTESIAN_POINT('',(0.201761782169342,-0.110648914737701,0.0254));
#356=CARTESIAN_POINT('',(0.196681782169342,-0.0578644573688507,0.02032));
#357=CARTESIAN_POINT('',(0.196681782169342,-0.0578644573688507,0.0254));
#358=CARTESIAN_POINT('',(0.196681782169342,-0.0578644573688507,-0.187289059244015));
#359=CARTESIAN_POINT('',(0.196681782169342,-0.00508,-0.187289059244015));
#360=CARTESIAN_POINT('',(0.196681782169342,-0.110648914737701,-0.187289059244015));
#361=CARTESIAN_POINT('',(0.00508,-0.115728914737701,-0.187289059244015));
#362=CARTESIAN_POINT('',(0.00508,-0.110648914737701,-0.187289059244015));
#363=CARTESIAN_POINT('',(0.00508,-0.00508,-0.187289059244015));
#364=CARTESIAN_POINT('',(0.201761782169342,-0.110648914737701,-0.187289059244015));
#365=CARTESIAN_POINT('',(0.100880891084671,-0.00508,-0.187289059244015));
#366=MECHANICAL_DESIGN_GEOMETRIC_PRESENTATION_REPRESENTATION('',(#219),
#367);
#367=(
GEOMETRIC_REPRESENTATION_CONTEXT(3)
GLOBAL_UNCERTAINTY_ASSIGNED_CONTEXT((#368))
GLOBAL_UNIT_ASSIGNED_CONTEXT((#371,#370,#369))
REPRESENTATION_CONTEXT('Part 1','TOP_LEVEL_ASSEMBLY_PART')
);
#368=UNCERTAINTY_MEASURE_WITH_UNIT(LENGTH_MEASURE(1.E-8),#371,
'DISTANCE_ACCURACY_VALUE','Maximum Tolerance applied to model');
#369=(
NAMED_UNIT(*)
SI_UNIT($,.STERADIAN.)
SOLID_ANGLE_UNIT()
);
#370=(
NAMED_UNIT(*)
PLANE_ANGLE_UNIT()
SI_UNIT($,.RADIAN.)
);
#371=(
LENGTH_UNIT()
NAMED_UNIT(*)
SI_UNIT($,.METRE.)
);
#372=PRODUCT_DEFINITION_SHAPE('','',#373);
#373=PRODUCT_DEFINITION('','',#375,#374);
#374=PRODUCT_DEFINITION_CONTEXT('',#381,'design');
#375=PRODUCT_DEFINITION_FORMATION_WITH_SPECIFIED_SOURCE('','',#377,
 .NOT_KNOWN.);
#376=PRODUCT_RELATED_PRODUCT_CATEGORY('','',(#377));
#377=PRODUCT('Part 1','Part 1','Part 1',(#379));
#378=PRODUCT_CATEGORY('','');
#379=PRODUCT_CONTEXT('',#381,'mechanical');
#380=APPLICATION_PROTOCOL_DEFINITION('international standard',
'ap242_managed_model_based_3d_engineering',2020,#381);
#381=APPLICATION_CONTEXT('managed model based 3d engineering');
ENDSEC;
END-ISO-10303-21;
