ISO-10303-21;
HEADER;
/* Generated by software containing ST-Developer
 * from STEP Tools, Inc. (www.steptools.com) 
 */
/* OPTION: using custom renumber hook */

FILE_DESCRIPTION(
/* description */ ('STEP AP242 Edition 2',
'CAx-IF Rec.Pracs.---Representation and Presentation of Product Manufa
cturing Information (PMI)---4.0---2014-10-13',
'CAx-IF Rec.Pracs.---3D Tessellated Geometry---0.4---2014-09-14','2;1',
'CAx-IF Rec.Pracs.---User Defined Attributes---1.5---2016-08-15'),
/* implementation_level */ '2;1');

FILE_NAME(
/* name */ 'Part Studio 1',
/* time_stamp */ '2026-09-14T10:32:28Z',
/* author */ (''),
/* organization */ (''),
/* preprocessor_version */ 'ST-DEVELOPER v20',
/* originating_system */ 'ONSHAPE BY PTC INC, 1.220',
/* authorisation */ '  ');

FILE_SCHEMA (('AP242_MANAGED_MODEL_BASED_3D_ENGINEERING_MIM_LF { 1 0 10303 442 3 1 4 }'));
ENDSEC;

DATA;
#10=SHAPE_REPRESENTATION_RELATIONSHIP('','',#171,#11);
#11=ADVANCED_BREP_SHAPE_REPRESENTATION('',(#169),#277);
#12=ELLIPSE('',#180,0.00718420489685532,0.00508);
#13=ELLIPSE('',#181,0.00718420489685532,0.00508);
#14=ELLIPSE('',#183,0.00718420489685532,0.00508);
#15=ELLIPSE('',#185,0.00718420489685532,0.00508);
#16=CYLINDRICAL_SURFACE('',#179,0.00508);
#17=CYLINDRICAL_SURFACE('',#182,0.00508);
#18=CYLINDRICAL_SURFACE('',#184,0.00508);
#19=CYLINDRICAL_SURFACE('',#186,0.00508);
#20=ORIENTED_EDGE('',*,*,#60,.F.);
#21=ORIENTED_EDGE('',*,*,#61,.T.);
#22=ORIENTED_EDGE('',*,*,#62,.T.);
#23=ORIENTED_EDGE('',*,*,#63,.F.);
#24=ORIENTED_EDGE('',*,*,#64,.F.);
#25=ORIENTED_EDGE('',*,*,#65,.T.);
#26=ORIENTED_EDGE('',*,*,#60,.T.);
#27=ORIENTED_EDGE('',*,*,#66,.T.);
#28=ORIENTED_EDGE('',*,*,#67,.F.);
#29=ORIENTED_EDGE('',*,*,#68,.T.);
#30=ORIENTED_EDGE('',*,*,#64,.T.);
#31=ORIENTED_EDGE('',*,*,#69,.T.);
#32=ORIENTED_EDGE('',*,*,#62,.F.);
#33=ORIENTED_EDGE('',*,*,#70,.T.);
#34=ORIENTED_EDGE('',*,*,#67,.T.);
#35=ORIENTED_EDGE('',*,*,#71,.F.);
#36=ORIENTED_EDGE('',*,*,#72,.T.);
#37=ORIENTED_EDGE('',*,*,#73,.T.);
#38=ORIENTED_EDGE('',*,*,#74,.T.);
#39=ORIENTED_EDGE('',*,*,#75,.T.);
#40=ORIENTED_EDGE('',*,*,#63,.T.);
#41=ORIENTED_EDGE('',*,*,#71,.T.);
#42=ORIENTED_EDGE('',*,*,#69,.F.);
#43=ORIENTED_EDGE('',*,*,#66,.F.);
#44=ORIENTED_EDGE('',*,*,#76,.F.);
#45=ORIENTED_EDGE('',*,*,#74,.F.);
#46=ORIENTED_EDGE('',*,*,#77,.F.);
#47=ORIENTED_EDGE('',*,*,#65,.F.);
#48=ORIENTED_EDGE('',*,*,#77,.T.);
#49=ORIENTED_EDGE('',*,*,#73,.F.);
#50=ORIENTED_EDGE('',*,*,#78,.F.);
#51=ORIENTED_EDGE('',*,*,#61,.F.);
#52=ORIENTED_EDGE('',*,*,#76,.T.);
#53=ORIENTED_EDGE('',*,*,#68,.F.);
#54=ORIENTED_EDGE('',*,*,#79,.F.);
#55=ORIENTED_EDGE('',*,*,#75,.F.);
#56=ORIENTED_EDGE('',*,*,#78,.T.);
#57=ORIENTED_EDGE('',*,*,#72,.F.);
#58=ORIENTED_EDGE('',*,*,#79,.T.);
#59=ORIENTED_EDGE('',*,*,#70,.F.);
#60=EDGE_CURVE('',#80,#81,#92,.T.);
#61=EDGE_CURVE('',#80,#82,#93,.T.);
#62=EDGE_CURVE('',#82,#83,#94,.T.);
#63=EDGE_CURVE('',#81,#83,#95,.T.);
#64=EDGE_CURVE('',#84,#85,#96,.T.);
#65=EDGE_CURVE('',#84,#80,#97,.F.);
#66=EDGE_CURVE('',#81,#85,#98,.T.);
#67=EDGE_CURVE('',#86,#87,#99,.T.);
#68=EDGE_CURVE('',#86,#84,#100,.F.);
#69=EDGE_CURVE('',#85,#87,#101,.T.);
#70=EDGE_CURVE('',#82,#86,#102,.T.);
#71=EDGE_CURVE('',#83,#87,#103,.T.);
#72=EDGE_CURVE('',#88,#89,#104,.F.);
#73=EDGE_CURVE('',#89,#90,#105,.F.);
#74=EDGE_CURVE('',#90,#91,#106,.T.);
#75=EDGE_CURVE('',#91,#88,#107,.T.);
#76=EDGE_CURVE('',#91,#84,#12,.F.);
#77=EDGE_CURVE('',#80,#90,#13,.T.);
#78=EDGE_CURVE('',#82,#89,#14,.T.);
#79=EDGE_CURVE('',#88,#86,#15,.F.);
#80=VERTEX_POINT('',#236);
#81=VERTEX_POINT('',#237);
#82=VERTEX_POINT('',#239);
#83=VERTEX_POINT('',#241);
#84=VERTEX_POINT('',#245);
#85=VERTEX_POINT('',#246);
#86=VERTEX_POINT('',#251);
#87=VERTEX_POINT('',#252);
#88=VERTEX_POINT('',#260);
#89=VERTEX_POINT('',#261);
#90=VERTEX_POINT('',#263);
#91=VERTEX_POINT('',#265);
#92=LINE('',#235,#108);
#93=LINE('',#238,#109);
#94=LINE('',#240,#110);
#95=LINE('',#242,#111);
#96=LINE('',#244,#112);
#97=LINE('',#247,#113);
#98=LINE('',#248,#114);
#99=LINE('',#250,#115);
#100=LINE('',#253,#116);
#101=LINE('',#254,#117);
#102=LINE('',#256,#118);
#103=LINE('',#257,#119);
#104=LINE('',#259,#120);
#105=LINE('',#262,#121);
#106=LINE('',#264,#122);
#107=LINE('',#266,#123);
#108=VECTOR('',#191,1.);
#109=VECTOR('',#192,1.);
#110=VECTOR('',#193,1.);
#111=VECTOR('',#194,1.);
#112=VECTOR('',#197,1.);
#113=VECTOR('',#198,1.);
#114=VECTOR('',#199,1.);
#115=VECTOR('',#202,1.);
#116=VECTOR('',#203,1.);
#117=VECTOR('',#204,1.);
#118=VECTOR('',#207,1.);
#119=VECTOR('',#208,1.);
#120=VECTOR('',#211,1.);
#121=VECTOR('',#212,1.);
#122=VECTOR('',#213,1.);
#123=VECTOR('',#214,1.);
#124=EDGE_LOOP('',(#20,#21,#22,#23));
#125=EDGE_LOOP('',(#24,#25,#26,#27));
#126=EDGE_LOOP('',(#28,#29,#30,#31));
#127=EDGE_LOOP('',(#32,#33,#34,#35));
#128=EDGE_LOOP('',(#36,#37,#38,#39));
#129=EDGE_LOOP('',(#40,#41,#42,#43));
#130=EDGE_LOOP('',(#44,#45,#46,#47));
#131=EDGE_LOOP('',(#48,#49,#50,#51));
#132=EDGE_LOOP('',(#52,#53,#54,#55));
#133=EDGE_LOOP('',(#56,#57,#58,#59));
#134=FACE_BOUND('',#124,.T.);
#135=FACE_BOUND('',#125,.T.);
#136=FACE_BOUND('',#126,.T.);
#137=FACE_BOUND('',#127,.T.);
#138=FACE_BOUND('',#128,.T.);
#139=FACE_BOUND('',#129,.T.);
#140=FACE_BOUND('',#130,.T.);
#141=FACE_BOUND('',#131,.T.);
#142=FACE_BOUND('',#132,.T.);
#143=FACE_BOUND('',#133,.T.);
#144=PLANE('',#173);
#145=PLANE('',#174);
#146=PLANE('',#175);
#147=PLANE('',#176);
#148=PLANE('',#177);
#149=PLANE('',#178);
#150=ADVANCED_FACE('',(#134),#144,.T.);
#151=ADVANCED_FACE('',(#135),#145,.F.);
#152=ADVANCED_FACE('',(#136),#146,.F.);
#153=ADVANCED_FACE('',(#137),#147,.T.);
#154=ADVANCED_FACE('',(#138),#148,.T.);
#155=ADVANCED_FACE('',(#139),#149,.F.);
#156=ADVANCED_FACE('',(#140),#16,.T.);
#157=ADVANCED_FACE('',(#141),#17,.T.);
#158=ADVANCED_FACE('',(#142),#18,.T.);
#159=ADVANCED_FACE('',(#143),#19,.T.);
#160=CLOSED_SHELL('',(#150,#151,#152,#153,#154,#155,#156,#157,#158,#159));
#161=STYLED_ITEM('',(#162),#169);
#162=PRESENTATION_STYLE_ASSIGNMENT((#163));
#163=SURFACE_STYLE_USAGE(.BOTH.,#164);
#164=SURFACE_SIDE_STYLE('',(#165));
#165=SURFACE_STYLE_FILL_AREA(#166);
#166=FILL_AREA_STYLE('',(#167));
#167=FILL_AREA_STYLE_COLOUR('',#168);
#168=COLOUR_RGB('',0.615686274509804,0.811764705882353,0.929411764705882);
#169=MANIFOLD_SOLID_BREP('Part 1',#160);
#170=SHAPE_DEFINITION_REPRESENTATION(#282,#171);
#171=SHAPE_REPRESENTATION('Part 1',(#172),#277);
#172=AXIS2_PLACEMENT_3D('',#233,#187,#188);
#173=AXIS2_PLACEMENT_3D('',#234,#189,#190);
#174=AXIS2_PLACEMENT_3D('',#243,#195,#196);
#175=AXIS2_PLACEMENT_3D('',#249,#200,#201);
#176=AXIS2_PLACEMENT_3D('',#255,#205,#206);
#177=AXIS2_PLACEMENT_3D('',#258,#209,#210);
#178=AXIS2_PLACEMENT_3D('',#267,#215,#216);
#179=AXIS2_PLACEMENT_3D('',#268,#217,#218);
#180=AXIS2_PLACEMENT_3D('',#269,#219,#220);
#181=AXIS2_PLACEMENT_3D('',#270,#221,#222);
#182=AXIS2_PLACEMENT_3D('',#271,#223,#224);
#183=AXIS2_PLACEMENT_3D('',#272,#225,#226);
#184=AXIS2_PLACEMENT_3D('',#273,#227,#228);
#185=AXIS2_PLACEMENT_3D('',#274,#229,#230);
#186=AXIS2_PLACEMENT_3D('',#275,#231,#232);
#187=DIRECTION('',(0.,0.,1.));
#188=DIRECTION('',(1.,0.,0.));
#189=DIRECTION('',(0.,1.,0.));
#190=DIRECTION('',(0.,0.,1.));
#191=DIRECTION('',(0.,0.,-1.));
#192=DIRECTION('',(1.,0.,0.));
#193=DIRECTION('',(0.,0.,-1.));
#194=DIRECTION('',(1.,0.,0.));
#195=DIRECTION('',(1.,0.,0.));
#196=DIRECTION('',(0.,0.,-1.));
#197=DIRECTION('',(0.,0.,-1.));
#198=DIRECTION('',(0.,-1.,0.));
#199=DIRECTION('',(0.,-1.,0.));
#200=DIRECTION('',(0.,1.,0.));
#201=DIRECTION('',(0.,0.,1.));
#202=DIRECTION('',(0.,0.,-1.));
#203=DIRECTION('',(1.,0.,0.));
#204=DIRECTION('',(1.,0.,0.));
#205=DIRECTION('',(1.,0.,0.));
#206=DIRECTION('',(0.,0.,-1.));
#207=DIRECTION('',(0.,-1.,0.));
#208=DIRECTION('',(0.,-1.,0.));
#209=DIRECTION('',(0.,0.,1.));
#210=DIRECTION('',(1.,0.,0.));
#211=DIRECTION('',(0.,-1.,0.));
#212=DIRECTION('',(1.,0.,0.));
#213=DIRECTION('',(0.,-1.,0.));
#214=DIRECTION('',(1.,0.,0.));
#215=DIRECTION('',(0.,0.,1.));
#216=DIRECTION('',(1.,0.,0.));
#217=DIRECTION('',(0.,1.,0.));
#218=DIRECTION('',(0.,0.,1.));
#219=DIRECTION('',(-0.707106781186548,0.707106781186548,0.));
#220=DIRECTION('',(-0.707106781186548,-0.707106781186548,0.));
#221=DIRECTION('',(0.707106781186548,0.707106781186548,0.));
#222=DIRECTION('',(0.707106781186548,-0.707106781186548,0.));
#223=DIRECTION('',(1.,0.,0.));
#224=DIRECTION('',(0.,0.,-1.));
#225=DIRECTION('',(0.707106781186548,-0.707106781186548,0.));
#226=DIRECTION('',(0.707106781186548,0.707106781186548,0.));
#227=DIRECTION('',(-1.,0.,0.));
#228=DIRECTION('',(0.,0.,1.));
#229=DIRECTION('',(-0.707106781186548,-0.707106781186548,0.));
#230=DIRECTION('',(-0.707106781186548,0.707106781186548,0.));
#231=DIRECTION('',(0.,-1.,0.));
#232=DIRECTION('',(0.,0.,-1.));
#233=CARTESIAN_POINT('',(0.,0.,0.));
#234=CARTESIAN_POINT('',(0.100880891084671,0.,0.0254));
#235=CARTESIAN_POINT('',(0.,0.,0.0254));
#236=CARTESIAN_POINT('',(0.,0.,0.02032));
#237=CARTESIAN_POINT('',(0.,0.,0.));
#238=CARTESIAN_POINT('',(0.100880891084671,0.,0.02032));
#239=CARTESIAN_POINT('',(0.201761782169342,0.,0.02032));
#240=CARTESIAN_POINT('',(0.201761782169342,0.,0.0254));
#241=CARTESIAN_POINT('',(0.201761782169342,0.,0.));
#242=CARTESIAN_POINT('',(0.100880891084671,0.,0.));
#243=CARTESIAN_POINT('',(0.,-0.0578644573688507,0.0254));
#244=CARTESIAN_POINT('',(0.,-0.115728914737701,0.0254));
#245=CARTESIAN_POINT('',(0.,-0.115728914737701,0.02032));
#246=CARTESIAN_POINT('',(0.,-0.115728914737701,0.));
#247=CARTESIAN_POINT('',(0.,0.,0.02032));
#248=CARTESIAN_POINT('',(0.,-0.0578644573688507,0.));
#249=CARTESIAN_POINT('',(0.100880891084671,-0.115728914737701,0.0254));
#250=CARTESIAN_POINT('',(0.201761782169342,-0.115728914737701,0.0254));
#251=CARTESIAN_POINT('',(0.201761782169342,-0.115728914737701,0.02032));
#252=CARTESIAN_POINT('',(0.201761782169342,-0.115728914737701,0.));
#253=CARTESIAN_POINT('',(0.,-0.115728914737701,0.02032));
#254=CARTESIAN_POINT('',(0.100880891084671,-0.115728914737701,0.));
#255=CARTESIAN_POINT('',(0.201761782169342,-0.0578644573688507,0.0254));
#256=CARTESIAN_POINT('',(0.201761782169342,-0.0578644573688507,0.02032));
#257=CARTESIAN_POINT('',(0.201761782169342,-0.0578644573688507,0.));
#258=CARTESIAN_POINT('',(0.100880891084671,-0.0578644573688507,0.0254));
#259=CARTESIAN_POINT('',(0.196681782169342,-0.0578644573688507,0.0254));
#260=CARTESIAN_POINT('',(0.196681782169342,-0.110648914737701,0.0254));
#261=CARTESIAN_POINT('',(0.196681782169342,-0.00508,0.0254));
#262=CARTESIAN_POINT('',(0.100880891084671,-0.00508,0.0254));
#263=CARTESIAN_POINT('',(0.00508,-0.00508,0.0254));
#264=CARTESIAN_POINT('',(0.00508,-0.115728914737701,0.0254));
#265=CARTESIAN_POINT('',(0.00508,-0.110648914737701,0.0254));
#266=CARTESIAN_POINT('',(0.201761782169342,-0.110648914737701,0.0254));
#267=CARTESIAN_POINT('',(0.100880891084671,-0.0578644573688507,0.));
#268=CARTESIAN_POINT('',(0.00508,-0.0578644573688507,0.02032));
#269=CARTESIAN_POINT('',(0.00508,-0.110648914737701,0.02032));
#270=CARTESIAN_POINT('',(0.00508,-0.00508,0.02032));
#271=CARTESIAN_POINT('',(0.100880891084671,-0.00508,0.02032));
#272=CARTESIAN_POINT('',(0.196681782169342,-0.00508,0.02032));
#273=CARTESIAN_POINT('',(0.100880891084671,-0.110648914737701,0.02032));
#274=CARTESIAN_POINT('',(0.196681782169342,-0.110648914737701,0.02032));
#275=CARTESIAN_POINT('',(0.196681782169342,-0.0578644573688507,0.02032));
#276=MECHANICAL_DESIGN_GEOMETRIC_PRESENTATION_REPRESENTATION('',(#161),
#277);
#277=(
GEOMETRIC_REPRESENTATION_CONTEXT(3)
GLOBAL_UNCERTAINTY_ASSIGNED_CONTEXT((#278))
GLOBAL_UNIT_ASSIGNED_CONTEXT((#281,#280,#279))
REPRESENTATION_CONTEXT('Part 1','TOP_LEVEL_ASSEMBLY_PART')
);
#278=UNCERTAINTY_MEASURE_WITH_UNIT(LENGTH_MEASURE(1.E-8),#281,
'DISTANCE_ACCURACY_VALUE','Maximum Tolerance applied to model');
#279=(
NAMED_UNIT(*)
SI_UNIT($,.STERADIAN.)
SOLID_ANGLE_UNIT()
);
#280=(
NAMED_UNIT(*)
PLANE_ANGLE_UNIT()
SI_UNIT($,.RADIAN.)
);
#281=(
LENGTH_UNIT()
NAMED_UNIT(*)
SI_UNIT($,.METRE.)
);
#282=PRODUCT_DEFINITION_SHAPE('','',#283);
#283=PRODUCT_DEFINITION('','',#285,#284);
#284=PRODUCT_DEFINITION_CONTEXT('',#291,'design');
#285=PRODUCT_DEFINITION_FORMATION_WITH_SPECIFIED_SOURCE('','',#287,
 .NOT_KNOWN.);
#286=PRODUCT_RELATED_PRODUCT_CATEGORY('','',(#287));
#287=PRODUCT('Part 1','Part 1','Part 1',(#289));
#288=PRODUCT_CATEGORY('','');
#289=PRODUCT_CONTEXT('',#291,'mechanical');
#290=APPLICATION_PROTOCOL_DEFINITION('international standard',
'ap242_managed_model_based_3d_engineering',2020,#291);
#291=APPLICATION_CONTEXT('managed model based 3d engineering');
ENDSEC;
END-ISO-10303-21;
